<?xml version="1.0" encoding="iso-8859-1"?>
<!-- Generator: Adobe Illustrator 19.0.0, SVG Export Plug-In . SVG Version: 6.00 Build 0)  -->
<svg version="1.1" id="Capa_1" xmlns="http://www.w3.org/2000/svg" xmlns:xlink="http://www.w3.org/1999/xlink" x="0px" y="0px"
	 viewBox="0 0 512 512" style="enable-background:new 0 0 512 512;" xml:space="preserve">
<path style="fill:#EFEFEF;" d="M337.699,71.586c-6.927,0-108.951,0-115.919,0h-21.361c-25.569,0-46.784,20.792-46.784,46.784
	c0,19.736,0,163.987,0,183.033v20.435c0,14.836,0,125.977,0,140.025c0,25.783,20.902,46.685,46.685,46.685h1.312h134.855h1.312
	c25.784,0,46.685-20.902,46.685-46.685c0-90.891,0-181.718,0-272.066V118.37C384.483,92.391,363.282,71.586,337.699,71.586z"/>
<path style="fill:#DDDDDD;" d="M180.516,461.864c0-2.26,0-336.436,0-343.493c0-25.9,21.119-46.784,46.784-46.784h-5.519H200.42
	c-25.569,0-46.784,20.792-46.784,46.784c0,19.736,0,163.987,0,183.033v20.435c0,14.836,0,125.977,0,140.025
	c0,25.783,20.902,46.685,46.685,46.685h1.312h25.569C201.417,508.549,180.516,487.648,180.516,461.864z"/>
<path style="fill:#3997EE;" d="M358.719,462.047c0,11.095-8.678,20.057-19.5,20.695h0.011c0,0-1.813,0.043-2.744,0.043H201.632
	c-0.931,0-1.846-0.067-2.744-0.186l0.004,0.05c-10.536-1.152-18.462-10.046-18.462-20.602c0-140.786,0-277.527,0-342.891
	c0-11.657,9.635-20.774,20.708-20.774h13.377c3.373,0,6.107,2.734,6.107,6.107v6.575c0,6.628,5.423,12.052,12.052,12.052
	c37.372,0,18.658,0,73.542,0h0.106c1.014-0.222,7.254,1.176,11.793-4.782c1.044-1.349,1.87-3.031,2.268-4.782
	c-0.015-0.02-0.028-0.041-0.043-0.061c0.162-0.784,0.247-1.596,0.247-2.426v-6.575c0-3.373,2.734-6.107,6.107-6.107h11.316
	c11.101,0,20.708,9.135,20.708,20.774v65.326C358.719,277.112,358.719,369.681,358.719,462.047z"/>
<path style="fill:#1E88D8;" d="M223.626,482.649c-10.536-1.152-18.462-10.046-18.462-20.602c0-140.786,0-277.527,0-342.891
	c0-8.808,5.52-16.306,13.297-19.324c-1.064-0.903-2.44-1.45-3.946-1.45h-13.377c-11.101,0-20.708,9.135-20.708,20.774
	c0,73.69,0,228.136,0,342.891c0,10.54,7.916,19.449,18.462,20.602l-0.004-0.05c0.898,0.119,1.813,0.186,2.744,0.186h24.734
	c-0.931,0-1.846-0.067-2.744-0.186L223.626,482.649z"/>
<path style="fill:#DDDDDD;" d="M288.64,106.111h-12.367c-4.269,0-7.729-3.46-7.729-7.729s3.461-7.729,7.729-7.729h12.367
	c4.269,0,7.729,3.46,7.729,7.729S292.909,106.111,288.64,106.111z"/>
<path style="fill:#48AEF9;" d="M275.243,457.536h-11.336c-4.269,0-7.729-3.46-7.729-7.729s3.461-7.729,7.729-7.729h11.336
	c4.269,0,7.729,3.46,7.729,7.729C282.972,454.076,279.511,457.536,275.243,457.536z"/>
<path style="fill:#DDDDDD;" d="M250.241,105.77c-4.129,0-7.729-3.332-7.729-7.729c0-4.284,3.495-7.729,7.729-7.729
	c4.241,0,7.729,3.456,7.729,7.729C257.97,102.313,254.498,105.77,250.241,105.77z"/>
<path style="fill:#32CC65;" d="M512,102.649c0,8.469-10.181,15.487-12.269,23.298c-2.16,8.081,3.085,19.237-1.009,26.313
	c-4.153,7.178-16.475,8.187-22.3,14.012c-5.825,5.825-6.835,18.147-14.012,22.3c-7.076,4.094-18.231-1.151-26.313,1.009
	c-7.811,2.087-14.828,12.269-23.297,12.269s-15.487-10.181-23.298-12.269c-8.081-2.16-19.237,3.085-26.313-1.009
	c-7.177-4.153-8.187-16.475-14.012-22.3c-5.825-5.825-18.147-6.835-22.3-14.012c-4.094-7.075,1.151-18.231-1.009-26.312
	c-2.088-7.811-12.269-14.828-12.269-23.297s10.181-15.487,12.269-23.297c2.16-8.082-3.085-19.237,1.009-26.313
	c4.153-7.177,16.475-8.187,22.3-14.012c5.825-5.825,6.835-18.147,14.012-22.3c7.076-4.094,18.231,1.151,26.313-1.009
	c7.81-2.088,14.828-12.269,23.297-12.269s15.487,10.181,23.298,12.269c8.081,2.16,19.237-3.085,26.313,1.009
	c7.177,4.153,8.187,16.475,14.012,22.3c5.825,5.825,18.147,6.835,22.3,14.012c4.094,7.075-1.151,18.231,1.009,26.313
	C501.819,87.162,512,94.18,512,102.649z"/>
<path style="fill:#23B658;" d="M364.97,130.263c-21.755-37.68-15.959-83.685,11.105-114.754c-4.621-0.526-9.12-0.817-12.652,1.104
	c-0.075,0.043-0.15,0.082-0.224,0.125c-0.073,0.042-0.144,0.086-0.216,0.129c-6.982,4.273-8.039,16.393-13.805,22.159
	c-5.82,5.819-18.123,6.834-22.287,13.993c-0.009,0.016-0.018,0.032-0.027,0.047c-4.065,7.077,1.162,18.214-0.995,26.285
	c-2.088,7.811-12.269,14.828-12.269,23.297s10.181,15.487,12.269,23.297c2.137,7.997-2.961,18.997,0.898,26.082
	c0.042,0.073,0.082,0.147,0.124,0.221c0.042,0.073,0.087,0.144,0.13,0.218c4.274,6.981,16.392,8.039,22.158,13.804
	c5.819,5.819,6.834,18.121,13.991,22.286c0.017,0.01,0.034,0.019,0.051,0.029c7.077,4.062,18.212-1.163,26.283,0.994
	c7.811,2.088,14.829,12.269,23.298,12.269s15.486-10.181,23.297-12.269c7.996-2.137,18.995,2.96,26.08-0.897
	c0.074-0.042,0.149-0.082,0.223-0.125c0.076-0.044,0.149-0.09,0.224-0.134c3.459-2.121,5.47-6.16,7.312-10.409
	C429.488,185.936,386.731,167.954,364.97,130.263z"/>
<path style="fill:#64C4FF;" d="M293.035,389.003h-46.608c-7.114,0-13.234-5.565-13.344-12.678
	c-0.112-7.209,5.698-13.087,12.881-13.087h46.608c7.114,0,13.234,5.565,13.344,12.678
	C306.028,383.124,300.218,389.003,293.035,389.003z"/>
<path style="fill:#48AEF9;" d="M268.051,376.325c-0.112-7.209,5.698-13.087,12.881-13.087h-34.968
	c-7.183,0-12.993,5.879-12.881,13.087c0.11,7.113,6.231,12.678,13.344,12.678h34.968
	C274.282,389.003,268.161,383.438,268.051,376.325z"/>
<circle style="fill:#FAC149;" cx="269.06" cy="269.459" r="63.895"/>
<path style="fill:#F8A748;" d="M237.805,287.501c-15.256-26.424-9.479-59.203,12.114-79.002c-4.375,1.378-8.671,3.234-12.808,5.622
	c-30.561,17.644-41.032,56.722-23.388,87.283s56.722,41.032,87.283,23.387c4.137-2.389,7.892-5.181,11.273-8.281
	C284.337,325.312,253.061,313.924,237.805,287.501z"/>
<path style="fill:#FC5B6F;" d="M25.635,301.404c-5.806,0-10.633,4.472-11.074,10.262L0.017,502.356
	c-0.255,3.341,2.388,6.193,5.739,6.193h187.878c3.357,0,6.005-2.857,5.75-6.205l-14.495-190.049
	c-0.469-6.145-5.591-10.891-11.754-10.891L25.635,301.404L25.635,301.404z"/>
<path style="fill:#F74352;" d="M43.988,502.356l14.544-190.691c0.442-5.789,5.268-10.262,11.074-10.262H25.635
	c-5.806,0-10.633,4.472-11.074,10.262L0.017,502.356c-0.255,3.341,2.388,6.193,5.739,6.193h43.971
	C46.376,508.549,43.733,505.698,43.988,502.356z"/>
<path style="fill:#F991A2;" d="M119.626,347.265H80.464c-4.269,0-7.729-3.46-7.729-7.729s3.461-7.729,7.729-7.729h39.162
	c4.269,0,7.729,3.46,7.729,7.729C127.355,343.804,123.895,347.265,119.626,347.265z"/>
<g>
	<path style="fill:#FCD597;" d="M296.866,284.4c0-11.405-8.874-20.755-20.077-21.563V249.36h5.668c4.269,0,7.729-3.46,7.729-7.729
		s-3.461-7.729-7.729-7.729h-5.668v-0.515c0-4.269-3.461-7.729-7.729-7.729s-7.729,3.46-7.729,7.729v0.571
		c-11.708,0.576-21.064,10.253-21.064,22.102c0,11.849,9.356,21.526,21.064,22.102v12.422h-6.699c-4.269,0-7.729,3.46-7.729,7.729
		s3.461,7.729,7.729,7.729h6.725c0.267,4.028,3.609,7.214,7.703,7.214c4.121,0,7.479-3.228,7.707-7.292
		C287.98,305.167,296.866,295.812,296.866,284.4z M255.725,256.059c0-3.32,2.431-6.077,5.605-6.601v13.203
		C258.156,262.136,255.725,259.379,255.725,256.059z M276.789,290.375v-11.95c2.653,0.696,4.618,3.107,4.618,5.975
		S279.441,289.679,276.789,290.375z"/>
	<path style="fill:#FCD597;" d="M154.666,340.05c-4.269,0-7.729-3.46-7.729-7.729v-43.759c0-25.763-20.96-46.724-46.724-46.724
		h-0.334c-25.764,0-46.724,20.961-46.724,46.724v43.759c0,4.269-3.461,7.729-7.729,7.729s-7.729-3.46-7.729-7.729v-43.759
		c0-34.288,27.895-62.183,62.183-62.183h0.334c34.288,0,62.183,27.895,62.183,62.183v43.759
		C162.395,336.59,158.934,340.05,154.666,340.05z"/>
</g>
<path style="fill:#EFEFEF;" d="M402.288,136.568L402.288,136.568c-3.509,0-6.873-1.394-9.354-3.875l-18.281-18.281
	c-5.166-5.166-5.166-13.542,0-18.708c5.166-5.165,13.543-5.165,18.708,0l8.927,8.927l25.802-25.802
	c5.166-5.166,13.542-5.166,18.708,0c5.166,5.166,5.166,13.542,0,18.708l-35.156,35.156
	C409.161,135.174,405.796,136.568,402.288,136.568z"/>
<path style="fill:#DDDDDD;" d="M446.798,78.828c-0.468-0.468-0.97-0.878-1.485-1.262c-0.015,2.97-1.152,5.936-3.419,8.203
	l-31.043,31.043c-4.559,4.559-11.958,4.561-16.519,0L378.19,100.67c-1.547-1.548-2.557-3.424-3.055-5.403
	c-0.161,0.146-0.327,0.281-0.482,0.436c-5.166,5.166-5.166,13.542,0,18.708l18.281,18.281c5.163,5.163,13.543,5.165,18.708,0
	l35.156-35.156C451.964,92.37,451.964,83.995,446.798,78.828z"/>
<g>
</g>
<g>
</g>
<g>
</g>
<g>
</g>
<g>
</g>
<g>
</g>
<g>
</g>
<g>
</g>
<g>
</g>
<g>
</g>
<g>
</g>
<g>
</g>
<g>
</g>
<g>
</g>
<g>
</g>
</svg>
