<svg id="Capa_1" enable-background="new 0 0 512 512" height="512" viewBox="0 0 512 512" width="512" xmlns="http://www.w3.org/2000/svg"><g><g><g><g><g><g><g><g><path d="m426.284 113.975-133.589-32.813c-5.603-1.376-11.518.275-15.598 4.355l-231.923 231.923c-6.442 6.442-6.442 16.886 0 23.327l166.402 166.402c6.442 6.442 16.886 6.442 23.327 0l231.922-231.923c4.08-4.08 5.731-9.995 4.355-15.598l-32.813-133.589c-1.464-5.963-6.12-10.619-12.083-12.084zm-44.131 56.215c-8.701-8.701-8.701-22.814 0-31.515 8.707-8.707 22.821-8.707 31.521-.007 8.701 8.701 8.701 22.814-.006 31.521-8.701 8.701-22.814 8.701-31.515.001z" fill="#0d8ba0"/></g><g><path d="m466.822 275.249-231.916 231.924c-6.444 6.436-16.89 6.436-23.326 0l-67.603-67.603c3.488.143 6.992.219 10.513.219 139.781 0 253.102-113.321 253.102-253.102 0-4.035-.093-8.053-.286-12.038 2.308-1.07 4.465-2.553 6.36-4.456 8.711-8.711 8.711-22.821.008-31.523-3.361-3.361-7.54-5.434-11.903-6.183-1.946-8.955-4.38-17.733-7.262-26.308l31.776 7.801c5.964 1.466 10.614 6.116 12.08 12.08l32.812 133.59c1.382 5.599-.27 11.513-4.355 15.599z" fill="#02718c"/></g><g><path d="m220.011 443.83-110.323-110.322c-4.656-4.656-4.669-12.201-.03-16.873l162.233-163.321c4.663-4.696 12.253-4.709 16.932-.03l110.323 110.323c4.656 4.656 4.669 12.201.03 16.873l-162.233 163.321c-4.663 4.695-12.253 4.709-16.932.029z" fill="#29e088"/><path d="m288.82 153.285c-4.675-4.675-12.266-4.667-16.932.034l-78.403 78.928c-8.12 8.174-8.071 21.385.111 29.499l.299.297c8.171 8.103 21.362 8.054 29.472-.11l57.081-57.462 26.881 26.887c8.122 8.123 21.28 8.137 29.43.043.1-.099.199-.198.299-.297 8.188-8.131 8.215-21.366.055-29.526z" fill="#79ff79"/><path d="m233.013 192.454-14.81 14.909c-8.094 8.148-8.094 21.32.029 29.439l.321.321c8.161 8.155 21.401 8.11 29.532-.074l14.808-14.907c8.07-8.124 8.09-21.238.034-29.375-.099-.1-.198-.2-.296-.299-8.152-8.233-21.454-8.233-29.618-.014z" fill="#c2ffc2"/><path d="m399.177 280.477-162.231 163.322c-4.667 4.698-12.253 4.714-16.936.031l-110.324-110.324c-4.652-4.652-4.667-12.199-.031-16.874l9.335-9.397c28.771 25.923 66.854 41.698 108.629 41.698 69.455 0 128.715-43.617 151.89-104.96l19.637 19.637c4.66 4.652 4.668 12.199.031 16.867z" fill="#0cc166"/></g></g></g></g></g><g><g><path d="m220.92 141.693-122.759 122.754c-8.574 8.574-8.574 22.475 0 31.049l.725.725c8.594 8.594 22.535 8.571 31.101-.052l122.346-123.166c8.527-8.584 8.5-22.448-.059-31-.104-.104-.209-.209-.313-.313-8.575-8.568-22.469-8.568-31.041.003z" fill="#12adb5"/></g><g><path d="m159.356 203.256-31.61 31.609c-8.602 8.602-8.582 22.559.048 31.133.154.153.308.306.462.459 8.61 8.553 22.527 8.503 31.08-.107l31.501-31.712c8.511-8.568 8.502-22.388.003-30.969-.104-.105-.208-.21-.312-.315-8.576-8.663-22.553-8.717-31.172-.098z" fill="#3cd3d3"/></g></g></g><g><path d="m265.037 305.222-1.604-1.604 13.034-13.034 12.515 12.515c4.061 4.061 10.647 4.061 14.708 0s4.061-10.646 0-14.708l-12.515-12.515 2.975-2.975c4.061-4.061 4.061-10.646 0-14.708s-10.646-4.061-14.708 0l-2.975 2.975-1.603-1.603c-11.703-11.703-30.746-11.704-42.45 0-11.703 11.703-11.703 30.746.001 42.449l1.603 1.603-13.034 13.034-12.515-12.515c-4.061-4.061-10.646-4.061-14.708 0-4.061 4.061-4.061 10.646 0 14.708l12.515 12.515-2.975 2.975c-4.061 4.061-4.061 10.646 0 14.708 4.061 4.061 10.647 4.061 14.708 0l2.975-2.975 1.604 1.604c11.703 11.703 30.746 11.703 42.449 0 11.703-11.704 11.703-30.746 0-42.449zm-17.915-17.915c-3.594-3.594-3.594-9.441-.001-13.034 3.594-3.594 9.441-3.594 13.034 0l1.603 1.603-13.034 13.034zm-9.827 45.657-1.604-1.604 13.034-13.034 1.604 1.604c3.593 3.593 3.593 9.44 0 13.034s-9.441 3.593-13.034 0z" fill="#efe"/></g></g><g><path d="m341.549 0c-54.004 0-97.772 43.777-97.772 97.772 0 6.566.647 12.974 1.886 19.179l31.348-31.348c5.706-30.451 32.43-53.496 64.537-53.496 36.259 0 65.656 29.397 65.656 65.665 0 23.775-12.632 44.591-31.561 56.122-.148 5.881 2.025 11.809 6.51 16.294 4.698 4.698 10.986 6.861 17.135 6.473 24.265-17.773 40.022-46.496 40.022-78.889.002-53.995-43.766-97.772-97.761-97.772z" fill="#ffc751"/></g><g><g><path d="m394.862 136.077c-5.137 7.147-11.674 13.221-19.218 17.816-.148 5.881 2.025 11.809 6.51 16.294 4.698 4.698 10.986 6.861 17.135 6.473 8.328-6.1 15.651-13.493 21.679-21.88 5.294-7.367 3.153-17.695-4.506-22.557-.091-.058-.183-.116-.274-.174-7.059-4.48-16.446-2.761-21.326 4.028z" fill="#ffaf40"/></g></g><g><path d="m377.146 27.805c.082-.13.164-.26.246-.389 5.616-8.879 1.234-20.732-8.864-23.633-8.568-2.462-17.618-3.783-26.979-3.783-35.711 0-66.939 19.145-84 47.726-4.698 7.87-1.618 18.119 6.584 22.211.096.048.193.096.289.144 7.381 3.68 16.453 1.224 20.673-5.862 11.452-19.229 32.448-32.113 56.454-32.113 6.198 0 12.193.863 17.875 2.473 6.765 1.917 13.966-.83 17.722-6.774z" fill="#ffe059"/></g><g><path d="m302.595 44.929c6.299-4.658 13.461-8.215 21.203-10.387 6.912-1.939 11.739-8.165 11.739-15.344v-.321c0-10.52-10.033-18.132-20.171-15.32-11.617 3.222-22.363 8.535-31.807 15.509-8.216 6.067-8.787 18.148-1.157 24.937 5.668 5.043 14.094 5.436 20.193.926z" fill="#fff370"/></g></g></svg>